HIERARCHY
ROOT RootJoint
{
    OFFSET   0.000000   0.000000   0.000000
    CHANNELS 6 Xposition Yposition Zposition Xrotation Yrotation Zrotation
    JOINT pelvis_lowerback
    {
        OFFSET   0.000000   0.093605   0.000000
        CHANNELS 3 Xrotation Yrotation Zrotation
        JOINT lowerback_torso
        {
            OFFSET   0.000000   0.100000   0.000000
            CHANNELS 3 Xrotation Yrotation Zrotation
            JOINT torso_head
            {
                OFFSET   0.000000   0.282350   0.000000
                CHANNELS 3 Xrotation Yrotation Zrotation
                End Site
                {
                    OFFSET   0.000000   0.192650   0.000000
                }
            }
            JOINT rTorso_Clavicle
            {
                OFFSET  -0.001000   0.157500   0.000000
                CHANNELS 3 Xrotation Yrotation Zrotation
                JOINT rShoulder
                {
                    OFFSET  -0.117647   0.000000   0.000000
                    CHANNELS 3 Xrotation Yrotation Zrotation
                    JOINT rElbow
                    {
                        OFFSET  -0.245000   0.000000   0.000000
                        CHANNELS 3 Xrotation Yrotation Zrotation
                        JOINT rWrist
                        {
                            OFFSET  -0.240000   0.000000   0.000000
                            CHANNELS 3 Xrotation Yrotation Zrotation
                            End Site
                            {
                                OFFSET  -0.116353  -0.002500   0.000000
                            }
                        }
                    }
                }
            }
            JOINT lTorso_Clavicle
            {
                OFFSET   0.001000   0.157500   0.000000
                CHANNELS 3 Xrotation Yrotation Zrotation
                JOINT lShoulder
                {
                    OFFSET   0.117647   0.000000   0.000000
                    CHANNELS 3 Xrotation Yrotation Zrotation
                    JOINT lElbow
                    {
                        OFFSET   0.245000   0.000000   0.000000
                        CHANNELS 3 Xrotation Yrotation Zrotation
                        JOINT lWrist
                        {
                            OFFSET   0.240000   0.000000   0.000000
                            CHANNELS 3 Xrotation Yrotation Zrotation
                            End Site
                            {
                                OFFSET   0.116353  -0.002500   0.000000
                            }
                        }
                    }
                }
            }
        }
    }
    JOINT rHip
    {
        OFFSET  -0.100000  -0.051395   0.000000
        CHANNELS 3 Xrotation Yrotation Zrotation
        JOINT rKnee
        {
            OFFSET   0.000000  -0.410000   0.000000
            CHANNELS 3 Xrotation Yrotation Zrotation
            JOINT rAnkle
            {
                OFFSET   0.000000  -0.390000   0.000000
                CHANNELS 3 Xrotation Yrotation Zrotation
                JOINT rToeJoint
                {
                    OFFSET   0.000000  -0.050000   0.130000
                    CHANNELS 3 Xrotation Yrotation Zrotation
                    End Site
                    {
                        OFFSET  -0.010000   0.002000   0.060000
                    }
                }
            }
        }
    }
    JOINT lHip
    {
        OFFSET   0.100000  -0.051395   0.000000
        CHANNELS 3 Xrotation Yrotation Zrotation
        JOINT lKnee
        {
            OFFSET   0.000000  -0.410000   0.000000
            CHANNELS 3 Xrotation Yrotation Zrotation
            JOINT lAnkle
            {
                OFFSET   0.000000  -0.390000   0.000000
                CHANNELS 3 Xrotation Yrotation Zrotation
                JOINT lToeJoint
                {
                    OFFSET   0.000000  -0.050000   0.130000
                    CHANNELS 3 Xrotation Yrotation Zrotation
                    End Site
                    {
                        OFFSET   0.010000   0.002000   0.060000
                    }
                }
            }
        }
    }
}
MOTION
Frames: 14
Frame Time:   0.008333
 -2.376719   0.925631   3.975860   0.000000   0.000000   0.000000   0.000000   0.000000   0.000000   0.000000   0.000000   0.000000   0.000000   0.000000   0.000000   0.000000   0.000000   0.000000   0.000000   0.000000   0.000000   0.000000   0.000000   0.000000   0.000000   0.000000   0.000000   0.000000   0.000000   0.000000   0.000000   0.000000   0.000000   0.000000   0.000000   0.000000   0.000000   0.000000   0.000000   0.000000   0.000000   0.000000   0.000000   0.000000   0.000000   0.000000   0.000000   0.000000   0.000000   0.000000   0.000000   0.000000   0.000000   0.000000   0.000000   0.000000   0.000000   0.000000   0.000000   0.000000   0.000000   0.000000   0.000000
 -2.376774   0.926109   3.974669   0.237650   0.162059  -0.026452  -0.189767   0.009499  -0.112731   0.295048  -0.333135   0.134718  -0.317460  -0.194777   0.206699   0.297632  -0.570808   0.355792   0.611728   0.047311   2.094393   0.068994   3.182993  -0.036276   0.052914  -1.226776  -2.842175   0.304981   0.622035  -0.070414   0.771565   0.658486  -2.219172   0.075234  -3.692953   0.047473   0.102769   1.035448   2.644349  -1.240258  -0.346649   0.016639   3.209307  -0.000013  -0.005157  -3.048756  -0.664787  -0.090517   0.289144   0.000235  -0.002144  -1.220752   0.034288   0.030563   2.218969  -0.000040   0.003815  -1.727839   0.412956   0.176863   0.708008  -0.001113   0.003779
 -2.376771   0.926868   3.973604   0.316860   0.399279  -0.077852  -0.303047  -0.003076  -0.208814   0.691791  -0.677930   0.308776  -0.570904  -0.393016   0.410173   0.588648  -1.058777   1.418270   1.192562   0.214100   4.755748   0.160720   6.262743  -0.063700   0.157042  -1.558610  -5.008175   0.607882   1.171938  -0.798486   1.545490   1.192076  -4.973392   0.174855  -7.275741   0.084594   0.271506   1.114928   4.648548  -2.283522  -0.693388   0.014217   6.770791   0.000558  -0.007554  -5.894358  -1.291415  -0.210493   0.458768   0.000403  -0.002804  -2.380501   0.076609   0.079199   4.502977   0.000361   0.008670  -3.337450   0.800231   0.355013   1.321456  -0.001744   0.006645
 -2.376732   0.927503   3.972731   0.357337   0.666702  -0.142466  -0.413141  -0.012521  -0.282215   1.081849  -0.999471   0.491273  -0.796974  -0.580044   0.601423   0.869615  -1.450537   2.918268   1.743592   0.457475   7.793211   0.251428   9.157552  -0.081426   0.268870  -1.611238  -6.340606   0.898988   1.623804  -1.982307   2.291465   1.608814  -7.945010   0.270889 -10.641171   0.108785   0.451740   0.910510   5.820841  -3.146872  -1.016481  -0.010662  10.265379   0.001714  -0.007947  -8.545158  -1.870889  -0.352400   0.629437   0.000612  -0.003189  -3.517285   0.118005   0.133943   6.645237   0.001121   0.012765  -4.839928   1.157390   0.531949   1.883013  -0.002060   0.008661
 -2.376659   0.927722   3.972042   0.396015   0.934751  -0.217595  -0.531744  -0.007004  -0.331099   1.436277  -1.286743   0.685751  -1.009412  -0.755156   0.775820   1.145654  -1.764763   4.713029   2.249381   0.750315  10.966115   0.328658  11.868218  -0.091464   0.374441  -1.565234  -6.963913   1.179358   2.005177  -3.449558   3.010041   1.930911 -10.990001   0.351098 -13.789936   0.122816   0.624972   0.623851   6.343394  -3.857522  -1.316415  -0.053146  13.579017   0.003235  -0.007752 -11.019367  -2.405438  -0.510574   0.785633   0.000813  -0.003324  -4.647180   0.156987   0.191113   8.625489   0.002054   0.015563  -6.244945   1.486360   0.706586   2.389392  -0.002142   0.009841
 -2.376553   0.927306   3.971516   0.440519   1.185616  -0.300561  -0.656837   0.017880  -0.354272   1.753961  -1.535716   0.894090  -1.210738  -0.918887   0.934904   1.418366  -2.020289   6.677397   2.707780   1.072844  14.136461   0.387539  14.401787  -0.096038   0.468137  -1.488197  -7.073744   1.450852   2.340884  -5.073239   3.703020   2.180101 -14.021116   0.410939 -16.729969   0.129312   0.783298   0.328933   6.412183  -4.441493  -1.594798  -0.110393  16.703755   0.004857  -0.007719 -13.330701  -2.897874  -0.680256   0.923303   0.000981  -0.003285  -5.768134   0.193016   0.247463  10.452673   0.002999   0.017049  -7.559032   1.789209   0.877907   2.845610  -0.002068   0.010334
 -2.376419   0.926101   3.971128   0.490755   1.412807  -0.388442  -0.785048   0.061847  -0.353018   2.040316  -1.746808   1.114117  -1.400859  -1.071973   1.081696   1.687487  -2.232434   8.711524   3.122803   1.411892  17.237789   0.427668  16.767258  -0.096930   0.548947  -1.410981  -6.846863   1.715746   2.648224  -6.762821   4.370735   2.373597 -16.979542   0.450150 -19.471837   0.130296   0.924212   0.057663   6.183192  -4.917661  -1.853179  -0.180352  19.646705   0.006362  -0.008022 -15.490284  -3.351063  -0.857639   1.044387   0.001109  -0.003143  -6.874605   0.225810   0.300693  12.139591   0.003841   0.017466  -8.787848   2.067915   1.044986   3.257777  -0.001904   0.010323
 -2.376207   0.923528   3.970160   0.390571   1.637442  -0.359140  -0.554669   0.115270  -0.449796   2.300907  -1.918296   1.312947  -1.805898  -1.156750   1.128766   1.861547  -2.268269  10.238525   3.397871   1.809888  20.075283   0.463541  19.569641  -0.103138   0.453307  -1.894750  -5.640846   2.095844   3.009391  -7.962731   5.261106   2.324717 -19.795039   0.497529 -22.840099   0.152217   0.838623   0.146401   5.336624  -5.007851  -2.199843  -0.316595  22.090434   0.005477  -0.009816 -17.912082  -3.837128  -0.969792   1.334524   0.001288  -0.004101  -8.104098   0.453264   0.158787  14.050997   0.006873   0.020823  -9.911163   2.333651   1.282350   3.725101  -0.001653   0.011242
 -2.376023   0.919765   3.968887   0.289948   1.789037  -0.303878  -0.276045   0.235672  -0.554297   2.575109  -2.007759   1.473626  -2.182501  -1.235007   1.166840   1.973949  -2.160972  11.485874   3.598865   2.297860  22.600030   0.473921  22.241642  -0.109072   0.400933  -2.125863  -4.536824   2.431278   3.272296  -8.939002   6.067547   2.178203 -22.324924   0.517871 -26.035025   0.165869   0.803971  -0.058682   4.546310  -4.982372  -2.523700  -0.410006  24.343725   0.003101  -0.011460 -20.181658  -4.285677  -1.093563   1.571098   0.001253  -0.004596  -9.427120   0.690413  -0.055674  15.825538   0.009950   0.021514 -10.957821   2.577983   1.509713   4.167925  -0.001124   0.011440
 -2.375903   0.914912   3.967489   0.200347   1.895545  -0.242567   0.018615   0.405594  -0.662090   2.842366  -2.030822   1.606055  -2.527243  -1.308052   1.203040   2.032098  -1.965167  12.524010   3.735676   2.828857  24.864724   0.467160  24.768197  -0.113631   0.382682  -2.168320  -3.649849   2.725147   3.475115  -9.752743   6.795950   1.984128 -24.611725   0.518696 -29.035165   0.171505   0.787049  -0.378454   3.912779  -4.862677  -2.829410  -0.444601  26.457606  -0.000042  -0.012429 -22.302144  -4.698273  -1.225298   1.788552   0.001123  -0.004854 -10.805080   0.921125  -0.308221  17.434407   0.012496   0.020450 -11.936722   2.800599   1.726511   4.574117  -0.000492   0.011091
 -2.375745   0.911143   3.966293   0.120785   1.755633   0.211989   0.292312   0.696123  -1.089411   3.095015  -1.942182   1.579816  -2.844137  -1.373757   1.228089   2.043500  -1.695888  13.561611   3.818496   3.390099  26.982939   0.452791  27.145153  -0.115468   0.385915  -2.093508  -2.937989   2.998773   3.670146 -10.541581   7.464462   1.789480 -26.715064   0.509578 -31.818626   0.171270   0.769613  -0.643369   3.447248  -4.681421  -3.062769  -0.791970  28.400857  -0.004895  -0.015422 -24.277607  -5.078749  -1.361212   2.026912   0.000898  -0.005516 -12.122550   1.089103  -0.771383  20.022773   0.011900   0.013741 -12.346908   2.960690   1.999726   4.906396  -0.001036   0.009091
 -2.375653   0.907602   3.965188   0.138062   1.641345   0.647042   0.500201   0.976673  -1.433394   3.293629  -1.833762   1.514660  -3.143091  -1.436869   1.239394   2.032380  -1.414946  14.449255   3.866024   3.940705  28.919708   0.431547  29.378327  -0.115709   0.395450  -1.937602  -2.300317   3.259915   3.851689 -11.273252   8.087029   1.582843 -28.689375   0.491493 -34.422784   0.166384   0.750449  -0.908540   2.977090  -4.486370  -3.300148  -1.010325  30.208296  -0.009969  -0.015954 -26.124635  -5.429197  -1.501325   2.241553   0.000542  -0.005752 -13.302139   1.319865  -1.191729  22.195823   0.010834   0.010307 -12.935171   3.149563   2.189319   5.293185  -0.001278   0.007897
 -2.375662   0.904144   3.964063   0.235165   1.611334   1.074363   0.679527   1.239293  -1.744088   3.451418  -1.726060   1.440984  -3.428053  -1.496990   1.252569   2.002878  -1.136648  15.212601   3.883724   4.467485  30.684983   0.406247  31.470593  -0.115450   0.407940  -1.740939  -1.767250   3.500384   4.011446 -11.937901   8.659694   1.365613 -30.520529   0.466534 -36.857457   0.158137   0.730625  -1.178169   2.529345  -4.273488  -3.536324  -1.120149  31.905091  -0.014406  -0.013956 -27.850884  -5.750169  -1.643801   2.434580   0.000139  -0.005582 -14.436894   1.550170  -1.597917  24.110390   0.009803   0.008843 -13.533572   3.326002   2.365179   5.630359  -0.001374   0.007044
 -2.375648   0.899610   3.962257   0.392790   1.752788   1.402274   1.031255   1.338815  -1.970775   3.582050  -1.638217   1.454655  -3.768690  -1.610348   1.098207   1.981033  -0.789345  15.480096   3.685567   4.986649  32.099364   0.382390  33.950033  -0.121008   0.330903  -1.779164  -0.790182   3.728521   4.231660 -12.248235   9.157594   1.242375 -32.086311   0.444162 -39.802500   0.155139   0.570343  -1.254220   1.633181  -3.596158  -3.860936  -1.197547  31.661179  -0.010856  -0.011128 -29.073245  -5.823214  -1.904195   2.749485  -0.000020  -0.005202 -16.017774   1.869990  -1.831431  26.687350   0.009684   0.013986 -14.427018   3.514031   2.455687   5.723516  -0.001153   0.006058
